# .PCD v0.7 - Point Cloud Data file format
VERSION 0.7
FIELDS x y z intensity
SIZE 4 4 4 4
TYPE F F F F
COUNT 1 1 1 1
WIDTH 109
HEIGHT 1
VIEWPOINT 0 0 0 1 0 0 0
POINTS 109
DATA ascii
7.0423259e-05 -7.7484139e-05 2.9758941e-05 0
1.0007312 -0.027283451 0.0081425169 1
1.1161516 -0.068167195 0.013772735 2
1.0857387 -0.099743314 0.0063724509 3
1.9850153 -0.65660459 0.020379607 4
2.8885772 -1.1545129 0.040144496 5
3.1159458 -1.32153 0.046781652 6
3.0670588 -1.3270829 0.049046736 7
3.0236001 -1.3189439 0.056142241 8
2.9741759 -1.3076671 0.049321841 9
2.924217 -1.2911603 0.054053176 10
2.8546505 -1.2460812 0.040764753 11
2.8399165 -1.2116508 0.042421941 12
2.8252101 -1.1596053 0.053446561 13
2.806493 -1.100615 0.041328054 14
2.830565 -1.0722007 0.05752001 15
2.8355968 -1.0106739 0.043939602 16
2.7840714 -0.94663864 0.05775496 17
1.761086 -0.81966633 0.045464877 18
0.72989863 -0.69773042 0.043101307 19
-0.30013356 -0.59151232 0.038870219 20
-1.3674804 -0.50767142 0.022227768 21
-2.3825729 -0.42465797 0.021590978 22
-3.3229792 -0.85864252 0.034409396 23
-3.4743078 -1.9273523 0.0269028 24
-3.7988772 -2.9140546 0.030178228 25
-3.6456597 -3.9348075 0.030722404 26
-3.4253085 -4.9755907 0.043267254 27
-4.1876297 -5.6725082 0.04523788 28
-5.2248139 -5.57307 0.037770431 29
-6.2422624 -5.4728284 0.035894889 30
-7.2766666 -5.524694 -0.00013911061 31
-7.6702604 -5.4333363 0.036727414 32
-7.8184214 -5.3240237 0.12752937 33
-8.6716967 -4.8133259 0.35896119 34
-9.4988813 -4.3612466 0.76458669 35
-10.249491 -3.57602 1.0033402 36
-10.73285 -2.7313118 1.4488274 37
-10.932321 -1.7724109 1.867565 38
-10.793296 -0.5540778 2.2048204 39
-10.501561 0.348259 2.4528809 40
-10.053612 1.2220495 2.7142947 41
-9.5681534 1.8361814 2.8272629 42
-9.0055809 2.4380264 2.8917637 43
-7.8116331 2.9005947 2.819768 44
-7.2114224 3.4118099 2.8897328 45
-6.2478042 3.5713072 2.7418351 46
-5.1757269 3.2164059 2.4856863 47
-3.9273362 3.0033808 2.2189605 48
-2.9697809 2.2008872 1.8831735 49
-2.0931246 1.0979922 1.4707745 50
-1.2314546 -1.1119632 0.78095716 51
-0.99447685 -2.157136 0.45192486 52
-0.88777918 -4.120996 -0.07569208 53
-0.74718559 -5.0858912 -0.32047898 54
-0.70801878 -6.0291619 -0.59181076 55
-0.74868327 -7.0117192 -0.86647576 56
-0.86165261 -8.0363474 -1.105341 57
-1.0698649 -9.0794268 -1.3871807 58
-1.2122312 -10.815771 -1.8087152 59
-1.6771402 -12.026119 -2.1333396 60
-3.1497345 -14.293244 -2.5977578 61
-4.3137708 -16.597279 -3.0622149 62
-5.4924536 -18.032766 -3.1679568 63
-6.8489194 -19.444124 -3.2412369 64
-8.3903265 -20.810163 -3.3156252 65
-10.111485 -22.115831 -3.346612 66
-12.018056 -23.315006 -3.4027503 67
-14.790176 -25.953302 -3.2563012 68
-19.4158 -27.264919 -2.4622889 69
-23.070951 -28.516308 -1.7555805 70
-24.238533 -30.095407 -1.743891 71
-30.32987 -29.801517 0.23331591 72
-31.865072 -31.387829 0.35196513 73
-35.655499 -30.884964 1.8717322 74
-39.313049 -30.543003 3.3183241 75
-45.440563 -28.118319 6.7276859 76
-47.69725 -29.428188 7.3460107 77
-51.265469 -27.445011 10.108207 78
-54.618904 -25.789845 12.904104 79
-57.702251 -23.746193 16.038929 80
-60.505363 -21.590616 19.443352 81
-62.853672 -19.201155 23.169149 82
-64.825569 -13.747593 30.407009 83
-67.529884 -14.154436 32.257389 84
-70.429108 -10.991094 38.896004 85
-70.730667 -7.6124668 43.392647 86
-70.032639 -3.8121071 47.788986 87
-68.95401 -0.2184377 51.824387 88
-67.402489 3.2137282 55.498108 89
-62.219818 8.9237595 60.511097 90
-64.111885 10.101162 63.057755 91
-60.472656 12.92035 65.301666 92
-57.235218 15.797041 67.751122 93
-53.662956 18.277384 69.660248 94
-49.88147 20.516315 71.212273 95
-45.898556 22.480133 72.376274 96
-41.737095 24.180531 73.167946 97
-37.411781 25.616213 73.589333 98
-32.942734 26.78562 73.644859 99
-28.34951 27.683342 73.337769 100
-23.647907 28.307438 72.672073 101
-18.86219 28.646317 71.65123 102
-14.013496 28.692274 70.28289 103
-9.1341505 28.431046 68.582947 104
-4.2498412 27.836733 66.572311 105
0.61692542 26.877106 64.31443 106
5.5471687 25.484671 61.921104 107
11.008223 23.489124 59.601383 108
