# .PCD v0.7 - Point Cloud Data file format
VERSION 0.7
FIELDS x y z intensity roll pitch yaw time
SIZE 4 4 4 4 4 4 4 8
TYPE F F F F F F F F
COUNT 1 1 1 1 1 1 1 1
WIDTH 109
HEIGHT 1
VIEWPOINT 0 0 0 1 0 0 0
POINTS 109
DATA ascii
7.0423259e-05 -7.7484139e-05 2.9758941e-05 0 0.00080307422 0.0032842138 3.1775093e-12 27.434
1.0007312 -0.027283451 0.0081425169 1 -0.010248876 -0.0077562938 -0.050125174 33.033
1.1161516 -0.068167195 0.013772735 2 -0.0081006009 -0.0034667971 -0.28191772 34.233
1.0857387 -0.099743314 0.0063724509 3 0.027984772 0.014573413 -0.50730801 34.634
1.9850153 -0.65660459 0.020379607 4 0.01415522 0.0043032891 -0.55542123 38.833
2.8885772 -1.1545129 0.040144496 5 -0.0024478256 -0.019535061 -0.50500602 42.533
3.1159458 -1.32153 0.046781652 6 0.0096242893 -0.0019127321 -0.72364765 44.234
3.0670588 -1.3270829 0.049046736 7 0.01488031 -0.002506905 -0.93398786 44.634
3.0236001 -1.3189439 0.056142241 8 0.0042656483 -0.025569666 -1.1463037 45.133
2.9741759 -1.3076671 0.049321841 9 0.0038492635 -0.014135476 -1.4119525 45.634
2.924217 -1.2911603 0.054053176 10 0.0035525942 -0.022254905 -1.6526952 46.134
2.8546505 -1.2460812 0.040764753 11 0.052926015 0.022751058 -1.9331981 46.733
2.8399165 -1.2116508 0.042421941 12 0.018553225 0.0018702359 -2.1796594 47.234
2.8252101 -1.1596053 0.053446561 13 0.0089895362 -0.0077807745 -2.412612 47.833
2.806493 -1.100615 0.041328054 14 0.05387111 0.024757117 -2.6464813 48.234
2.830565 -1.0722007 0.05752001 15 0.0090895118 -0.0099382997 -2.8724399 48.833
2.8355968 -1.0106739 0.043939602 16 0.034626886 0.011882438 -3.1238317 49.233
2.7840714 -0.94663864 0.05775496 17 0.038458277 -0.02526251 2.9452109 50.234
1.761086 -0.81966633 0.045464877 18 0.0026083654 -0.010312818 3.034642 53.733
0.72989863 -0.69773042 0.043101307 19 0.021931494 -0.0054537156 2.9846823 57.333
-0.30013356 -0.59151232 0.038870219 20 0.038972985 0.013901375 3.0036881 60.834
-1.3674804 -0.50767142 0.022227768 21 0.0017582884 -0.00062295067 3.0748596 64.535
-2.3825729 -0.42465797 0.021590978 22 -0.01159255 0.0039453465 3.0861025 68.035
-3.3229792 -0.85864252 0.034409396 23 -0.02026741 0.0035044106 2.9476748 74.134
-3.4743078 -1.9273523 0.0269028 24 0.0052293618 -0.00062025769 2.975023 79.736
-3.7988772 -2.9140546 0.030178228 25 0.016171252 -0.018289162 3.1185365 83.435
-3.6456597 -3.9348075 0.030722404 26 -0.006366651 -0.0088383965 3.1166353 87.234
-3.4253085 -4.9755907 0.043267254 27 0.0099048195 -0.010240627 -3.120029 91.134
-4.1876297 -5.6725082 0.04523788 28 0.0038437035 -0.008696299 3.0721328 95.834
-5.2248139 -5.57307 0.037770431 29 0.016321449 0.00097436149 3.0673413 99.435
-6.2422624 -5.4728284 0.035894889 30 0.013224076 0.0027182817 3.0546985 160.236
-7.2766666 -5.524694 -0.00013911061 31 0.014278759 0.0023308822 3.0828063 163.736
-7.6702604 -5.4333363 0.036727414 32 0.035334285 -0.017790271 -2.9883831 164.835
-7.8184214 -5.3240237 0.12752937 33 -0.0065640421 -0.017357651 -2.7017553 165.236
-8.6716967 -4.8133259 0.35896119 34 -0.025628645 -0.051337011 -2.7915943 166.836
-9.4988813 -4.3612466 0.76458669 35 -0.086806461 -0.090023167 -2.8650935 168.736
-10.249491 -3.57602 1.0033402 36 -0.083138131 -0.09244936 -2.9890454 170.436
-10.73285 -2.7313118 1.4488274 37 -0.13075925 -0.1413808 -3.0399168 172.035
-10.932321 -1.7724109 1.867565 38 -0.16903298 -0.18471077 -3.0945513 173.235
-10.793296 -0.5540778 2.2048204 39 -0.13503264 -0.23796575 2.972837 174.236
-10.501561 0.348259 2.4528809 40 -0.042988826 -0.27347243 2.5953498 174.836
-10.053612 1.2220495 2.7142947 41 0.045213282 -0.2958239 2.228503 175.436
-9.5681534 1.8361814 2.8272629 42 0.10154795 -0.29964972 2.0195329 175.835
-9.0055809 2.4380264 2.8917637 43 0.15302297 -0.28807467 1.8087121 176.235
-7.8116331 2.9005947 2.819768 44 0.23321429 -0.24374957 1.550634 176.736
-7.2114224 3.4118099 2.8897328 45 0.26723474 -0.18712133 1.3494768 177.135
-6.2478042 3.5713072 2.7418351 46 0.3022095 -0.13605554 1.1283374 177.536
-5.1757269 3.2164059 2.4856863 47 0.30234298 -0.10760762 1.0246345 177.835
-3.9273362 3.0033808 2.2189605 48 0.30082896 -0.099153236 1.0054809 178.436
-2.9697809 2.2008872 1.8831735 49 0.29317951 -0.10209931 1.0176122 178.836
-2.0931246 1.0979922 1.4707745 50 0.29199532 -0.11113389 1.0372423 179.235
-1.2314546 -1.1119632 0.78095716 51 0.2922684 -0.11712725 1.0376244 179.736
-0.99447685 -2.157136 0.45192486 52 0.28702235 -0.11554751 1.0558776 180.136
-0.88777918 -4.120996 -0.07569208 53 0.28791362 -0.1178683 1.0638695 180.535
-0.74718559 -5.0858912 -0.32047898 54 0.289289 -0.13102858 1.0746628 180.736
-0.70801878 -6.0291619 -0.59181076 55 0.29186863 -0.13512568 1.0792265 180.935
-0.74868327 -7.0117192 -0.86647576 56 0.29844558 -0.13784984 1.0793132 181.135
-0.86165261 -8.0363474 -1.105341 57 0.30147517 -0.14074282 1.0780386 181.334
-1.0698649 -9.0794268 -1.3871807 58 0.29816169 -0.13785566 1.0800524 181.535
-1.2122312 -10.815771 -1.8087152 59 0.30640426 -0.15389602 1.0743734 181.935
-1.6771402 -12.026119 -2.1333396 60 0.29647833 -0.16798316 1.068686 182.135
-3.1497345 -14.293244 -2.5977578 61 0.28615126 -0.16045839 1.0763993 182.435
-4.3137708 -16.597279 -3.0622149 62 0.27192941 -0.12144259 1.0963248 182.835
-5.4924536 -18.032766 -3.1679568 63 0.26976132 -0.11102439 1.1075859 183.036
-6.8489194 -19.444124 -3.2412369 64 0.26666114 -0.11967099 1.1011088 183.237
-8.3903265 -20.810163 -3.3156252 65 0.26229167 -0.13440377 1.0921605 183.435
-10.111485 -22.115831 -3.346612 66 0.26142907 -0.14184496 1.089528 183.635
-12.018056 -23.315006 -3.4027503 67 0.25502837 -0.13785297 1.0782518 183.836
-14.790176 -25.953302 -3.2563012 68 0.2808063 -0.13062927 1.076515 184.236
-19.4158 -27.264919 -2.4622889 69 0.30796316 -0.15574321 1.0602071 184.536
-23.070951 -28.516308 -1.7555805 70 0.35634363 -0.17421095 1.0533651 184.836
-24.238533 -30.095407 -1.743891 71 0.3673715 -0.17105246 1.0577928 185.036
-30.32987 -29.801517 0.23331591 72 0.35934058 -0.18320327 1.0438253 185.336
-31.865072 -31.387829 0.35196513 73 0.38803783 -0.17094986 1.0450963 185.536
-35.655499 -30.884964 1.8717322 74 0.41058153 -0.19859867 1.0159351 185.737
-39.313049 -30.543003 3.3183241 75 0.43983319 -0.18244578 0.98892224 185.938
-45.440563 -28.118319 6.7276859 76 0.45261267 -0.14977001 0.9739601 186.236
-47.69725 -29.428188 7.3460107 77 0.50918978 -0.17102429 0.96491766 186.436
-51.265469 -27.445011 10.108207 78 0.5487085 -0.1884767 0.9469521 186.637
-54.618904 -25.789845 12.904104 79 0.57604724 -0.21206966 0.93031722 186.836
-57.702251 -23.746193 16.038929 80 0.60843372 -0.24537307 0.91272652 187.037
-60.505363 -21.590616 19.443352 81 0.65259296 -0.23361121 0.90903598 187.236
-62.853672 -19.201155 23.169149 82 0.71259689 -0.21666449 0.90643817 187.436
-64.825569 -13.747593 30.407009 83 0.6845035 -0.18280327 0.92483753 187.737
-67.529884 -14.154436 32.257389 84 0.74550748 -0.21569403 0.8777144 187.936
-70.429108 -10.991094 38.896004 85 0.7319901 -0.19981912 0.89038646 188.336
-70.730667 -7.6124668 43.392647 86 0.7189365 -0.18281427 0.90410215 188.537
-70.032639 -3.8121071 47.788986 87 0.70904595 -0.16442747 0.92259496 188.737
-68.95401 -0.2184377 51.824387 88 0.70236182 -0.14747478 0.94246519 188.936
-67.402489 3.2137282 55.498108 89 0.69909203 -0.13400935 0.96190226 189.135
-62.219818 8.9237595 60.511097 90 0.70743257 -0.11761254 0.99934584 189.436
-64.111885 10.101162 63.057755 91 0.74289817 -0.14265846 0.97231519 189.637
-60.472656 12.92035 65.301666 92 0.74847955 -0.13813435 0.99533391 189.836
-57.235218 15.797041 67.751122 93 0.75201839 -0.13238408 1.0147423 190.037
-53.662956 18.277384 69.660248 94 0.7574566 -0.13082939 1.0341978 190.237
-49.88147 20.516315 71.212273 95 0.76382774 -0.13061501 1.0535173 190.436
-45.898556 22.480133 72.376274 96 0.77097005 -0.13193728 1.0724372 190.636
-41.737095 24.180531 73.167946 97 0.77910316 -0.13588282 1.0898045 190.836
-37.411781 25.616213 73.589333 98 0.7883206 -0.14072637 1.1066829 191.036
-32.942734 26.78562 73.644859 99 0.79822451 -0.14734107 1.1216269 191.236
-28.34951 27.683342 73.337769 100 0.80844325 -0.15385109 1.1361982 191.436
-23.647907 28.307438 72.672073 101 0.82043308 -0.16325077 1.1465344 191.637
-18.86219 28.646317 71.65123 102 0.83283138 -0.17153326 1.1556622 191.836
-14.013496 28.692274 70.28289 103 0.84603602 -0.17830393 1.1623847 192.038
-9.1341505 28.431046 68.582947 104 0.86063313 -0.18268491 1.1643335 192.236
-4.2498412 27.836733 66.572311 105 0.87684339 -0.17969117 1.1600549 192.436
0.61692542 26.877106 64.31443 106 0.89725929 -0.16826448 1.1394417 192.635
5.5471687 25.484671 61.921104 107 0.92254949 -0.13098535 1.0936112 192.836
11.008223 23.489124 59.601383 108 0.95242375 -0.034689363 0.99419391 193.036
